<svg width="150" height="250" viewBox="0 0 150 250" fill="none" xmlns="http://www.w3.org/2000/svg">
<path d="M46.5686 0.192734C25.4886 2.12024 13.3366 4.81874 9.36858 8.67374C7.13658 10.8582 6.88858 12.6572 6.88858 28.2057C6.88858 44.1397 6.64058 45.9388 3.54058 52.8777C-1.54342 64.0573 -1.17142 73.3092 4.78058 85.6452L9.24458 95.1543L11.7246 128.564C13.0886 146.94 15.4446 177.908 16.9326 197.312C18.2966 216.715 20.0326 234.191 20.7766 236.119C22.3886 240.745 31.8126 245.499 43.4686 247.684C55.0006 249.868 95.3006 249.868 106.709 247.684C117.993 245.499 128.037 240.745 129.525 236.89C130.145 235.219 132.997 202.452 135.725 164.03L140.933 94.2547L145.397 85.1313C151.225 73.1808 151.473 64.0573 146.389 52.8777C143.165 45.6817 142.917 44.3967 143.165 28.4627C143.413 12.2717 143.289 11.3722 140.561 8.80225C134.237 2.89124 119.481 0.706741 81.9086 0.192734C65.5406 -0.0642548 49.6686 -0.0642548 46.5686 0.192734ZM107.949 9.70174C114.645 10.4727 122.209 11.3722 124.565 11.7577C128.533 12.5287 128.657 12.7857 126.177 13.6852C115.637 17.7972 46.1966 18.4397 27.9686 14.7132L19.9086 13.0427L24.8686 12.0147C39.6246 8.67374 85.2566 7.38875 107.949 9.70174ZM29.2086 24.0938C48.8006 27.5632 119.233 26.0212 132.501 21.7807C134.361 21.1382 134.609 22.2947 134.609 34.3737C134.609 46.0672 134.981 48.5087 137.957 54.6767C142.669 64.9567 142.421 72.2812 136.841 83.5892C133.617 90.2713 132.253 94.8972 131.757 101.579C131.261 106.462 129.277 133.961 127.169 162.617C125.061 191.272 123.077 215.944 122.705 217.486C120.721 227.895 53.2646 230.722 31.6886 221.47L27.2246 219.542L22.5126 156.706L17.9246 93.8692L13.5846 84.3602C7.38458 70.4823 7.13658 67.1413 11.7246 56.2188C15.1966 47.9948 15.5686 45.9388 15.5686 34.1167C15.5686 22.2947 15.8166 21.1382 17.8006 21.7807C18.9166 22.1662 24.1246 23.1942 29.2086 24.0938ZM75.0886 235.091C100.633 235.091 105.345 234.705 113.281 232.521C121.217 230.208 122.209 230.079 121.961 231.878C121.093 236.633 98.7726 241.002 75.0886 241.002C51.4046 241.002 29.0846 236.633 28.2166 231.878C27.9686 230.079 28.9606 230.208 36.8966 232.521C44.8326 234.705 49.5446 235.091 75.0886 235.091Z" fill="#4F200D"/>
</svg>
