<svg width="150" height="250" viewBox="0 0 150 250" fill="none" xmlns="http://www.w3.org/2000/svg">
<path d="M46.5686 0.192734C25.4886 2.12024 13.3366 4.81874 9.36858 8.67374C7.13658 10.8582 6.88858 12.6572 6.88858 28.2057C6.88858 44.1397 6.64058 45.9388 3.54058 52.8777C-1.54342 64.0573 -1.17142 73.3092 4.78058 85.6452L9.24458 95.1543L11.7246 128.564C13.0886 146.94 15.4446 177.908 16.9326 197.312C18.2966 216.715 20.0326 234.191 20.7766 236.119C22.3886 240.745 31.8126 245.499 43.4686 247.684C55.0006 249.868 95.3006 249.868 106.709 247.684C117.993 245.499 128.037 240.745 129.525 236.89C130.145 235.219 132.997 202.452 135.725 164.03L140.933 94.2547L145.397 85.1313C151.225 73.1808 151.473 64.0573 146.389 52.8777C143.165 45.6817 142.917 44.3967 143.165 28.4627C143.413 12.2717 143.289 11.3722 140.561 8.80225C134.237 2.89124 119.481 0.706741 81.9086 0.192734C65.5406 -0.0642548 49.6686 -0.0642548 46.5686 0.192734ZM107.949 9.70174C114.645 10.4727 122.209 11.3722 124.565 11.7577C128.533 12.5287 128.657 12.7857 126.177 13.6852C115.637 17.7972 46.1966 18.4397 27.9686 14.7132L19.9086 13.0427L24.8686 12.0147C39.6246 8.67374 85.2566 7.38875 107.949 9.70174ZM29.2086 24.0938C48.8006 27.5632 119.233 26.0212 132.501 21.7807C134.361 21.1382 134.609 22.2947 134.609 34.3737C134.609 46.0672 134.981 48.5087 137.957 54.6767C142.669 64.9567 142.421 72.2812 136.841 83.5892C133.617 90.2713 132.253 94.8972 131.757 101.579C131.261 106.462 129.277 133.961 127.169 162.617C125.061 191.272 123.077 215.944 122.705 217.486C120.721 227.895 53.2646 230.722 31.6886 221.47L27.2246 219.542L22.5126 156.706L17.9246 93.8692L13.5846 84.3602C7.38458 70.4823 7.13658 67.1413 11.7246 56.2188C15.1966 47.9948 15.5686 45.9388 15.5686 34.1167C15.5686 22.2947 15.8166 21.1382 17.8006 21.7807C18.9166 22.1662 24.1246 23.1942 29.2086 24.0938ZM75.0886 235.091C100.633 235.091 105.345 234.705 113.281 232.521C121.217 230.208 122.209 230.079 121.961 231.878C121.093 236.633 98.7726 241.002 75.0886 241.002C51.4046 241.002 29.0846 236.633 28.2166 231.878C27.9686 230.079 28.9606 230.208 36.8966 232.521C44.8326 234.705 49.5446 235.091 75.0886 235.091Z" fill="#4F200D"/>
<path d="M22.2615 150.079C24.5936 149.82 25.266 146.282 28.1808 146.498C30.0559 146.637 31.1951 149.625 32.3839 150.726C34.8245 152.986 38.9602 152.448 41.7603 151.074C44.0229 149.964 45.0436 147.841 47.8039 147.841C50.6417 147.841 53.1163 150.24 55.2901 151.87C61.727 156.698 67.8584 153.603 74.192 150.527C76.9116 149.206 80.1791 148.578 82.7227 150.577C86.4059 153.471 89.2544 153.661 93.7902 153.661C97.4288 153.661 98.0243 151.528 100.854 149.831C103.2 148.423 105.494 146.784 108.315 147.941C112.383 149.608 117.317 157.736 121.646 152.417C124.006 149.518 124.621 146.946 128.808 146.946" stroke="#FFD93D" stroke-width="3" stroke-linecap="round"/>
<path d="M78.0166 186.596C81.1613 186.596 90.5654 185.843 87.4207 185.843C82.4363 185.843 77.5276 186.897 72.4682 186.549C63.4243 185.925 56.9503 179.825 47.9705 179.825C45.8451 179.825 42.708 178.594 43.5036 175.969C44.8251 171.608 59.1474 180.174 60.9952 180.859C70.6298 184.433 80.7114 188.941 91.1823 189.135C94.591 189.198 97.4281 189.845 99.834 187.254C101.019 185.978 105.803 180.073 103.69 179.872C100.578 179.575 97.4118 178.83 96.0724 181.752C94.1391 185.971 92.6007 193.312 87.7968 195.059C84.6058 196.22 81.6079 197.448 78.4868 198.821C75.3256 200.212 71.1034 203.439 67.6721 203.523C64.871 203.591 62.0093 203.627 59.2084 203.523C55.3157 203.379 51.6557 201.83 47.5473 201.83" stroke="#FFD93D" stroke-width="50" stroke-linecap="round"/>
<path d="M96.1187 210.883C96.5302 211.212 97.273 211.113 97.7753 211.263C98.4159 211.455 99.0148 212.012 99.72 211.994C100.753 211.967 101.607 211.158 102.58 210.893C103.582 210.62 104.467 210.386 105.533 210.337C106.771 210.281 108.246 210.588 109.454 210.286C109.932 210.166 110.32 209.957 110.822 209.957C110.946 209.957 110.617 209.801 110.565 209.689C110.27 209.048 110.38 208.197 110.38 207.518C110.38 205.88 110.217 204.096 110.39 202.456C110.457 201.823 110.374 202.711 110.349 202.826C110.086 204.008 109.789 205.192 109.454 206.355C109.348 206.723 108.648 209.735 108.342 209.771C108.023 209.809 107.701 209.763 107.396 209.679C106.147 209.332 104.756 209.341 103.476 209.421C99.9532 209.642 96.4566 211.064 93.1966 212.323C91.8516 212.842 90.4297 213.492 88.978 213.63C87.7913 213.743 86.5677 213.661 85.3767 213.661" stroke="#FFD93D" stroke-width="25" stroke-linecap="round"/>
<path d="M79.2649 222.736C79.984 222.736 80.8459 222.904 81.3433 222.468C81.688 222.167 82.6855 222.067 83.1337 221.913C83.7939 221.686 84.4642 221.595 85.1504 221.481C86.5406 221.249 88.0904 221.439 89.5028 221.439C92.862 221.439 96.0939 221.502 99.4525 221.172C102.955 220.827 106.341 220.318 109.752 219.484C111.797 218.985 114.082 218.69 116.039 217.92C116.597 217.701 117.09 217.36 117.644 217.138C117.698 217.117 117.977 216.985 117.675 217.036C116.679 217.202 115.688 217.577 114.712 217.828C112.196 218.475 109.668 219.105 107.17 219.814C103.88 220.747 100.808 221.398 97.3947 221.799C94.9106 222.092 92.4506 222.652 89.9658 222.88C86.2276 223.223 82.4108 223.291 78.6578 223.291C72.1057 223.291 65.5896 223.121 59.067 222.468C56.0239 222.164 52.9648 222.06 49.9404 221.583C46.952 221.113 43.5854 221.002 40.8343 219.587C38.9213 218.603 36.9369 217.591 34.918 216.85C33.713 216.408 32.36 216.037 31.2961 215.328" stroke="#FFD93D" stroke-width="12" stroke-linecap="round"/>
<path d="M90.9331 214.957C94.1276 214.957 97.5617 215.327 100.687 214.546C103.457 213.853 105.777 212.33 108.034 210.625C109.924 209.198 112.079 207.69 113.528 205.779C114.355 204.689 114.957 203.472 115.751 202.363C116.075 201.91 117.169 199.767 117.891 199.996C118.115 200.068 118.299 201.521 118.334 201.797C118.472 202.905 118.141 203.839 117.984 204.863C117.947 205.103 117.973 205.983 117.973 205.223C117.973 203.503 117.747 206.554 117.685 206.952C117.392 208.841 117.047 210.535 117.047 212.477C117.047 213.6 117.781 210.88 117.891 210.594C118.827 208.174 119.912 205.848 119.784 203.186C119.675 200.898 119.085 198.735 119.085 196.436" stroke="#FFD93D" stroke-width="12" stroke-linecap="round"/>
<path d="M42.5939 235.33C43.321 235.462 44.0048 236.054 44.7546 236.256C47.1283 236.897 49.6559 236.553 52.0806 236.894C58.441 237.788 64.8966 237.779 71.3011 238.201C75.5388 238.479 79.9191 238.418 84.1524 238.19C86.0467 238.088 87.8534 237.744 89.7086 237.378C91.9831 236.928 94.3056 236.808 96.6128 236.626C101.991 236.204 107.355 235.322 112.705 234.63C114.969 234.338 117.561 234.24 119.64 233.2C120.044 232.998 120.831 232.711 120.978 232.223C121.052 231.975 120.475 232.35 120.237 232.449C119.093 232.924 117.94 233.378 116.79 233.838C112.677 235.483 108.441 235.99 104.083 236.647C101.128 237.092 98.2552 237.869 95.2751 238.18C92.0062 238.521 88.7301 238.478 85.4489 238.478C80.8868 238.478 76.3326 238.646 71.7744 238.664C64.1755 238.694 56.5524 238.116 48.9938 237.367C45.366 237.008 41.6546 236.548 38.2106 235.309C35.192 234.224 31.6127 233.101 29.0737 231.07" stroke="#FFD93D" stroke-width="6" stroke-linecap="round"/>
<path d="M126.816 150.031C126.651 153.504 126.241 156.89 126.241 160.387C126.241 161.701 126.202 169.616 125.601 169.144C121.88 166.22 124.423 150.649 123.045 155.177C122.463 157.086 123.258 162.352 121.766 161.026C120.706 160.084 122.612 154.019 120.232 158.341C118.445 161.587 117.314 162.1 116.333 158.533C115.44 155.286 113.707 158.097 114.447 158.245C115.526 158.461 108.713 150.182 109.141 155.752C109.308 157.917 109.91 155.069 108.279 153.483C106.684 151.933 103.258 153.054 104.763 155.401C105.791 157.005 107.7 154.779 107.607 153.579C107.441 151.418 104.31 152.888 103.74 153.994C102.91 155.605 104.305 158.972 105.786 156.423C107.649 153.213 99.9881 152.658 98.6582 156.647C97.8044 159.209 99.9635 161.892 102.717 160.77C105.784 159.521 104.317 156.182 101.886 155.401C99.3144 154.574 94.8046 155.029 95.2384 158.789C95.8974 164.5 103.703 160.307 96.5807 158.469C92.1873 157.335 90.0551 161.03 87.5997 163.774C86.8928 164.564 87.5147 160.339 87.5677 159.875C87.822 157.65 87.9239 160.582 88.7503 161.377C91.4911 164.017 93.9254 159.258 88.6544 158.565C86.6408 158.3 79.5473 162.742 83.0292 163.902C86.3696 165.016 87.3616 160.036 86.481 157.958C85.0153 154.498 80.9169 154.666 79.5774 158.085C78.7103 160.299 80.5668 164.541 82.7096 161.218C84.7523 158.049 80.678 154.34 77.6917 156.647C75.9334 158.006 76.946 161.128 77.7876 159.747C82.6396 151.79 66.6939 156.894 72.1305 159.875C74.546 161.2 78.6087 158.208 77.9155 155.465C76.9972 151.832 72.1942 155.423 72.2583 157.862C72.3389 160.923 75.9573 158.135 76.2535 156.487C76.8195 153.339 73.1303 151.726 70.6922 153.291C68.5098 154.692 69.3154 157.598 71.3315 158.693C74.2999 160.304 73.6665 155.991 71.1397 155.081C67.8423 153.894 63.5098 156.467 66.9208 159.747C71.0657 163.733 80.625 164.807 84.7232 160.291C91.4844 152.84 77.5354 152.733 80.0569 158.533C80.9871 160.672 86.0982 161.177 84.6273 159.364C82.8863 157.218 78.139 157.927 79.961 161.281C80.8391 162.898 85.4527 165.046 86.8006 162.912C87.8149 161.306 84.7122 160.784 83.8602 161.154C79.0703 163.231 76.013 166.489 70.4685 167.258C61.7328 168.47 54.2391 165.105 46.274 162.208C42.3762 160.791 37.1266 158.72 33.2338 161.281C32.0093 162.087 30.5778 163.631 29.6542 164.733C28.8964 165.638 27.9126 168.505 27.385 167.45C26.4715 165.623 27.3367 161.772 27.2891 159.747C27.2193 156.782 26.8909 159.139 25.8828 158.98C24.6784 158.79 24.8375 156.465 24.1569 155.784C23.3126 154.94 23.7187 158.313 24.2847 159.364C25.0583 160.801 23.455 155.989 24.061 154.474C24.7106 152.85 27.7746 152.033 29.1109 153.036C29.5296 153.35 32.3728 156.138 32.9142 155.656C33.4119 155.214 30.6397 152.985 30.2934 152.812C29.2342 152.282 29.6649 154.532 29.5903 155.017C29.3771 156.403 28.5599 152.399 27.8644 151.182" stroke="#FFD93D" stroke-width="6" stroke-linecap="round"/>
<path d="M28.1336 151.769C32.02 151.769 35.9064 151.769 39.7928 151.769C45.5535 151.769 50.2479 154.573 55.7825 154.767C66.4046 155.14 76.0827 150.549 86.5127 151.853C91.3362 152.456 94.2351 155.039 99.9207 154.684C104.352 154.407 108.12 152.363 112.08 150.603C114.247 149.64 130.347 150.27 122.573 150.27C114.735 150.27 105.894 146.539 98.2551 149.771C92.8977 152.037 82.7834 159.475 76.6857 157.599C71.5763 156.027 69.0322 150.869 64.4436 149.104C60.5857 147.621 55.5677 150.896 51.785 151.436C47.2928 152.078 40.9427 152.7 36.3783 151.686C30.5439 150.39 25.2389 150.27 19.1394 150.27" stroke="#FFD93D" stroke-width="6" stroke-linecap="round"/>
<path d="M17.8486 150.315C17.8486 152.675 18.9438 154.784 18.9875 157.148C19.0408 160.024 19.6352 162.467 20.253 165.247C21.9228 172.761 22.4042 180.17 22.4042 187.898C22.4042 193.284 24.4042 198.96 26.1057 204.064C26.825 206.222 26.746 207.897 26.9915 210.107C27.1968 211.955 28.0988 213.312 28.0988 215.232" stroke="#FFD93D" stroke-width="6" stroke-linecap="round"/>
<path d="M34.4419 161.484C34.4419 165.774 35.1108 166.04 39.3775 166.04C41.541 166.04 43.2949 165.284 45.0725 164.141C45.603 163.8 48.9608 160.864 46.5911 160.725C43.4495 160.54 40.2482 160.725 37.0996 160.725C33.986 160.725 32.656 162.11 35.9606 163.762" stroke="white" stroke-width="3" stroke-linecap="round"/>
<path d="M59.4994 181.226C56.7075 181.575 59.5778 186.412 61.018 187.132C63.4798 188.363 67.1855 188.882 68.4425 185.614C69.7369 182.248 69.5777 180.467 65.5739 180.467C62.5554 180.467 60.2587 179.828 60.2587 183.504" stroke="white" stroke-width="3" stroke-linecap="round"/>
<path d="M101.262 149.335C101.262 150.874 101.162 154.418 102.401 155.409C104.472 157.066 107.099 156.223 108.265 153.891C111.28 147.861 104.496 147.338 100.503 149.335" stroke="white" stroke-width="3" stroke-linecap="round"/>
<path d="M99.7437 192.616C99.7437 196.612 105.818 202.029 105.818 195.653C105.818 193.899 106.115 190.481 103.54 190.338C101.085 190.202 99.0473 191.951 100.503 194.135" stroke="white" stroke-width="3" stroke-linecap="round"/>
<path d="M18.496 147.057C18.496 143.83 18.496 144.304 18.496 147.057C18.496 148.265 16.8528 151.666 16.0493 149.166C15.0027 145.91 13.9363 137.735 18.496 136.595C20.8244 136.013 26.6746 135.225 26.8485 138.704C27.3188 148.11 25.9887 133.626 29.7171 137.354C30.7942 138.431 31.1656 143.4 30.4764 144.779C29.9041 145.923 29.8858 140.769 29.8858 139.843C29.8858 137.088 32.1416 137.945 34.4418 137.945C38.7372 137.945 38.9977 139.926 38.9977 143.598C38.9977 145.634 38.9977 140.596 38.9977 139.843C38.9977 136.692 40.6406 136.947 43.174 136.384C46.2616 135.698 47.3503 136.352 47.3503 140.181C47.3503 141.105 47.3503 145.579 47.3503 142.88C47.3503 140.894 46.7381 138.21 48.4893 136.848C50.931 134.949 52.0871 138.43 52.4968 140.223C53.4537 144.409 52.8811 146.651 48.7002 147.816C46.7805 148.351 39.757 150.271 39.757 147.057C39.757 144.526 39.757 141.995 39.757 139.463C39.757 136.306 41.676 137.185 44.4817 137.185C48.4825 137.185 51.2792 137.028 53.2561 140.982C53.6128 141.696 53.2184 145.801 52.8343 145.369C51.6475 144.034 52.6137 137.482 52.6655 135.667C52.7661 132.148 54.9095 131.397 57.9808 132.25C61.824 133.317 63.4125 135.782 64.4351 139.463C64.8921 141.109 65.6035 144.282 63.7179 144.821C60.7681 145.664 61.7774 143.276 61.7774 140.181C61.7774 136.149 60.5555 133.389 64.9835 133.389C70.5846 133.389 73.1673 132.463 73.1673 138.704C73.1673 142.133 74.6818 147.057 70.5096 147.057C69.0912 147.057 66.6112 133.389 72.7876 133.389C78.7912 133.389 80.0012 138.474 80.0012 143.302C80.0012 145.893 77.7388 147.696 77.0061 144.399C76.6457 142.777 76.642 139.963 77.0061 138.324C77.5467 135.892 78.9924 135.667 81.1402 135.667C84.2514 135.667 85.1072 138.114 85.907 140.813C86.4591 142.676 86.0758 145.108 86.0758 147.057C86.0758 147.657 85.1606 152.41 83.9665 149.757C82.8404 147.254 83.1227 139.457 85.1477 137.354C87.1415 135.284 90.2385 135.518 92.9097 135.667C95.7354 135.824 96.7063 143.479 96.7063 145.538C96.7063 147.26 97.5533 150.225 95.1877 150.094C92.9757 149.971 93.669 146.633 93.669 145.116C93.669 138.831 96.7648 135.806 103.161 137.228C105.76 137.805 107.531 143.864 105.439 145.538C100.79 149.257 100.992 140.293 102.443 139.463C106.071 137.391 110.215 137.317 114.171 139.295C116.493 140.456 119.37 148.984 115.689 148.575C113.542 148.337 114.081 144.023 114.171 142.501C114.282 140.603 117.86 140.982 119.106 140.982C124.253 140.982 123.283 143.701 123.283 148.196C123.283 153.399 117.967 150.308 117.967 146.297" stroke="white" stroke-width="10" stroke-linecap="round"/>
</svg>
