<svg width="135" height="135" viewBox="0 0 135 135" fill="none" xmlns="http://www.w3.org/2000/svg">
<g clip-path="url(#clip0_39_190)" filter="url(#filter0_d_39_190)">
<path d="M61.578 8.83745C51.7168 7.98205 45.9076 8.19453 43.7777 9.58581C42.5783 10.3755 42.3231 11.1551 41.1044 18.0664C39.8555 25.1492 39.6003 25.9287 37.6285 28.7613C34.4104 33.3177 33.8566 37.4605 35.6314 43.4274L36.9424 48.0167L35.4661 63.0691C34.6542 71.3478 33.3122 85.3048 32.4768 94.0506C31.5843 102.786 31.0142 110.696 31.2059 111.613C31.5858 113.8 35.5542 116.679 40.7522 118.597C45.893 120.504 64.4566 123.777 69.8828 123.733C75.2518 123.679 80.2511 122.381 81.2387 120.788C81.6552 120.096 85.5372 105.762 89.8052 88.9055L97.6731 58.3129L100.444 54.6201C104.066 49.7814 104.895 45.7461 103.429 40.3638C102.508 36.9033 102.495 36.312 103.858 29.2494C105.241 22.0725 105.255 21.6626 104.199 20.2987C101.75 17.1576 95.1236 14.988 77.8569 11.7078C70.3374 10.2642 63.0262 8.97499 61.578 8.83745ZM89.1066 18.0497C92.1306 18.9363 95.5443 19.9505 96.5994 20.3132C98.3667 20.9782 98.4037 21.1025 97.1908 21.3009C92.0134 22.2726 59.9765 16.9181 51.8721 13.7811L48.2903 12.3839L50.6557 12.3298C57.7147 12.0433 78.8351 15.1784 89.1066 18.0497ZM51.7081 18.0515C60.4609 21.185 93.0253 26.2203 99.4694 25.413C100.377 25.2785 100.4 25.8127 99.4534 31.1819C98.5369 36.3797 98.5169 37.4952 99.4043 40.4786C100.769 45.4308 100.081 48.6665 96.6241 53.2397C94.6153 55.948 93.6244 57.8935 92.8722 60.8234C92.261 62.9536 89.1918 75.0159 85.9748 87.5822C82.7578 100.148 79.9102 110.954 79.618 111.609C77.8883 116.075 46.594 111.853 37.3805 105.988L35.4753 104.768L38.2298 76.4543L41.0414 48.1505L39.7875 43.5712C38.0193 36.8988 38.167 35.3936 41.1364 30.9111C43.3803 27.5375 43.7128 26.6539 44.6394 21.3989C45.566 16.144 45.7709 15.6501 46.6344 16.0968C47.1183 16.3588 49.4367 17.2388 51.7081 18.0515ZM56.3045 115.567C68.071 117.642 70.2717 117.853 74.0985 117.527C77.9354 117.143 78.4025 117.167 78.1472 117.946C77.3747 119.989 66.7509 120.118 55.8412 118.195C44.9315 116.271 34.9926 112.516 34.9654 110.332C34.9921 109.512 35.439 109.65 38.9133 111.323C42.3977 112.938 44.538 113.492 56.3045 115.567Z" fill="#F6F1E9"/>
</g>
<defs>
<filter id="filter0_d_39_190" x="-4.00024" y="0" width="142.381" height="142.381" filterUnits="userSpaceOnUse" color-interpolation-filters="sRGB">
<feFlood flood-opacity="0" result="BackgroundImageFix"/>
<feColorMatrix in="SourceAlpha" type="matrix" values="0 0 0 0 0 0 0 0 0 0 0 0 0 0 0 0 0 0 127 0" result="hardAlpha"/>
<feOffset dy="4"/>
<feGaussianBlur stdDeviation="2"/>
<feComposite in2="hardAlpha" operator="out"/>
<feColorMatrix type="matrix" values="0 0 0 0 0 0 0 0 0 0 0 0 0 0 0 0 0 0 0.25 0"/>
<feBlend mode="normal" in2="BackgroundImageFix" result="effect1_dropShadow_39_190"/>
<feBlend mode="normal" in="SourceGraphic" in2="effect1_dropShadow_39_190" result="shape"/>
</filter>
<clipPath id="clip0_39_190">
<rect width="116" height="116" fill="white" transform="translate(20.1431) rotate(10)"/>
</clipPath>
</defs>
</svg>
