<svg width="415" height="135" viewBox="0 0 415 135" fill="none" xmlns="http://www.w3.org/2000/svg">
<g clip-path="url(#clip0_89_218)">
<path d="M61.5781 8.83744C51.7168 7.98206 45.9077 8.19453 43.7777 9.58581C42.5784 10.3755 42.3231 11.1551 41.1045 18.0664C39.8556 25.1492 39.6004 25.9287 37.6285 28.7613C34.4104 33.3177 33.8566 37.4605 35.6314 43.4273L36.9424 48.0167L35.4662 63.0691C34.6543 71.3478 33.3123 85.3048 32.4769 94.0506C31.5844 102.786 31.0143 110.696 31.2059 111.613C31.5859 113.8 35.5543 116.679 40.7522 118.597C45.8931 120.504 64.4567 123.777 69.8829 123.733C75.2519 123.679 80.2512 122.381 81.2387 120.788C81.6553 120.096 85.5373 105.762 89.8053 88.9055L97.6731 58.3129L100.445 54.6201C104.066 49.7814 104.895 45.7461 103.429 40.3638C102.508 36.9033 102.495 36.312 103.858 29.2494C105.241 22.0725 105.255 21.6626 104.199 20.2987C101.75 17.1576 95.1237 14.988 77.857 11.7078C70.3374 10.2642 63.0262 8.975 61.5781 8.83744ZM89.1066 18.0497C92.1306 18.9363 95.5444 19.9505 96.5994 20.3132C98.3668 20.9782 98.4038 21.1025 97.1909 21.3009C92.0135 22.2726 59.9766 16.9181 51.8722 13.7811L48.2904 12.3839L50.6557 12.3298C57.7147 12.0433 78.8352 15.1784 89.1066 18.0497ZM51.7082 18.0515C60.461 21.185 93.0254 26.2203 99.4694 25.413C100.377 25.2785 100.4 25.8127 99.4535 31.1819C98.5369 36.3797 98.5169 37.4952 99.4043 40.4786C100.769 45.4308 100.081 48.6665 96.6242 53.2397C94.6154 55.948 93.6245 57.8935 92.8723 60.8234C92.2611 62.9536 89.1919 75.0159 85.9749 87.5822C82.7579 100.148 79.9102 110.954 79.618 111.609C77.8883 116.075 46.5941 111.853 37.3806 105.988L35.4754 104.768L38.2299 76.4543L41.0415 48.1505L39.7876 43.5712C38.0194 36.8988 38.167 35.3936 41.1365 30.9111C43.3804 27.5375 43.7129 26.6539 44.6395 21.3989C45.5661 16.144 45.771 15.6501 46.6345 16.0968C47.1184 16.3588 49.4368 17.2388 51.7082 18.0515ZM56.3046 115.567C68.0711 117.642 70.2718 117.853 74.0986 117.527C77.9355 117.143 78.4025 117.167 78.1473 117.946C77.3748 119.989 66.751 120.118 55.8413 118.195C44.9316 116.271 34.9926 112.516 34.9654 110.332C34.9922 109.512 35.4391 109.65 38.9134 111.323C42.3978 112.938 44.5381 113.492 56.3046 115.567Z" fill="#F6F1E9"/>
</g>
<path d="M114.161 84V47.6364H128.507C131.265 47.6364 133.615 48.1631 135.556 49.2166C137.497 50.2583 138.977 51.7083 139.995 53.5668C141.025 55.4134 141.54 57.544 141.54 59.9588C141.54 62.3736 141.019 64.5043 139.977 66.3509C138.936 68.1974 137.426 69.6357 135.45 70.6655C133.485 71.6953 131.105 72.2102 128.312 72.2102H119.168V66.049H127.069C128.549 66.049 129.768 65.7945 130.727 65.2855C131.697 64.7647 132.419 64.0485 132.893 63.1371C133.378 62.2138 133.621 61.1544 133.621 59.9588C133.621 58.7514 133.378 57.6979 132.893 56.7983C132.419 55.8868 131.697 55.1825 130.727 54.6854C129.756 54.1764 128.525 53.9219 127.033 53.9219H121.849V84H114.161ZM146.392 84V56.7273H153.955V84H146.392ZM150.191 53.2116C149.067 53.2116 148.102 52.8388 147.297 52.093C146.504 51.3355 146.107 50.4299 146.107 49.3764C146.107 48.3348 146.504 47.4411 147.297 46.6953C148.102 45.9377 149.067 45.5589 150.191 45.5589C151.316 45.5589 152.275 45.9377 153.068 46.6953C153.873 47.4411 154.275 48.3348 154.275 49.3764C154.275 50.4299 153.873 51.3355 153.068 52.093C152.275 52.8388 151.316 53.2116 150.191 53.2116ZM167.578 68.233V84H160.015V56.7273H167.223V61.5391H167.543C168.147 59.9529 169.159 58.6982 170.579 57.7749C172 56.8397 173.722 56.3722 175.746 56.3722C177.64 56.3722 179.291 56.7865 180.7 57.6151C182.109 58.4437 183.203 59.6274 183.985 61.1662C184.766 62.6932 185.157 64.5161 185.157 66.6349V84H177.593V67.9844C177.605 66.3153 177.178 65.0133 176.314 64.0781C175.45 63.1312 174.261 62.6577 172.745 62.6577C171.727 62.6577 170.828 62.8767 170.047 63.3146C169.277 63.7526 168.673 64.3918 168.235 65.2322C167.809 66.0608 167.59 67.0611 167.578 68.233ZM205.624 56.7273V62.4091H189.2V56.7273H205.624ZM192.929 50.1932H200.493V75.6193C200.493 76.3177 200.6 76.8622 200.813 77.2528C201.026 77.6316 201.322 77.898 201.7 78.0518C202.091 78.2057 202.541 78.2827 203.05 78.2827C203.405 78.2827 203.76 78.2531 204.115 78.1939C204.47 78.1229 204.743 78.0696 204.932 78.0341L206.122 83.6626C205.743 83.781 205.21 83.9171 204.524 84.071C203.837 84.2367 203.003 84.3374 202.02 84.3729C200.197 84.4439 198.599 84.2012 197.226 83.6449C195.865 83.0885 194.805 82.2244 194.048 81.0526C193.29 79.8807 192.917 78.401 192.929 76.6136V50.1932ZM207.6 53.9751V47.6364H237.465V53.9751H226.332V84H218.733V53.9751H207.6ZM239.409 84V56.7273H246.742V61.4858H247.026C247.523 59.7931 248.358 58.5147 249.53 57.6506C250.702 56.7746 252.051 56.3366 253.578 56.3366C253.957 56.3366 254.365 56.3603 254.803 56.4077C255.241 56.455 255.626 56.5201 255.957 56.603V63.3146C255.602 63.2081 255.111 63.1134 254.484 63.0305C253.856 62.9477 253.282 62.9062 252.761 62.9062C251.649 62.9062 250.654 63.1489 249.778 63.6342C248.914 64.1077 248.228 64.7706 247.719 65.6229C247.222 66.4751 246.973 67.4576 246.973 68.5703V84H239.409ZM266.864 84.5149C265.124 84.5149 263.573 84.2131 262.212 83.6094C260.851 82.9938 259.773 82.0883 258.98 80.8928C258.199 79.6854 257.808 78.1821 257.808 76.3828C257.808 74.8677 258.087 73.5952 258.643 72.5653C259.199 71.5355 259.957 70.7069 260.916 70.0795C261.874 69.4522 262.963 68.9787 264.183 68.6591C265.414 68.3395 266.704 68.1146 268.053 67.9844C269.64 67.8187 270.918 67.6648 271.889 67.5227C272.859 67.3688 273.564 67.1439 274.002 66.848C274.44 66.5521 274.659 66.1141 274.659 65.5341V65.4276C274.659 64.303 274.303 63.433 273.593 62.8175C272.895 62.2019 271.901 61.8942 270.61 61.8942C269.249 61.8942 268.166 62.196 267.361 62.7997C266.556 63.3916 266.023 64.1373 265.763 65.0369L258.767 64.4688C259.122 62.8116 259.821 61.3793 260.862 60.1719C261.904 58.9527 263.248 58.0175 264.893 57.3665C266.55 56.7036 268.468 56.3722 270.646 56.3722C272.161 56.3722 273.611 56.5497 274.996 56.9048C276.393 57.2599 277.63 57.8104 278.707 58.5561C279.796 59.3018 280.654 60.2607 281.281 61.4325C281.909 62.5926 282.222 63.9834 282.222 65.6051V84H275.049V80.218H274.836C274.398 81.0703 273.812 81.822 273.078 82.473C272.344 83.1122 271.463 83.6153 270.433 83.9822C269.403 84.3374 268.213 84.5149 266.864 84.5149ZM269.03 79.2947C270.143 79.2947 271.125 79.0758 271.977 78.6378C272.83 78.188 273.499 77.5843 273.984 76.8267C274.469 76.0691 274.712 75.2109 274.712 74.2521V71.358C274.475 71.5118 274.15 71.6539 273.735 71.7841C273.333 71.9025 272.877 72.0149 272.368 72.1214C271.859 72.2161 271.35 72.3049 270.841 72.3878C270.332 72.4588 269.87 72.5239 269.456 72.5831C268.568 72.7133 267.793 72.9205 267.13 73.2045C266.467 73.4886 265.952 73.8733 265.585 74.3587C265.218 74.8321 265.035 75.424 265.035 76.1342C265.035 77.1641 265.408 77.9512 266.154 78.4957C266.911 79.0284 267.87 79.2947 269.03 79.2947ZM300.413 84.5327C297.62 84.5327 295.217 83.9408 293.204 82.7571C291.204 81.5616 289.665 79.9044 288.588 77.7855C287.523 75.6667 286.99 73.2282 286.99 70.4702C286.99 67.6766 287.528 65.2263 288.606 63.1193C289.695 61.0005 291.239 59.3492 293.24 58.1655C295.24 56.9699 297.62 56.3722 300.378 56.3722C302.757 56.3722 304.84 56.8042 306.628 57.6683C308.415 58.5324 309.83 59.7457 310.871 61.3082C311.913 62.8707 312.487 64.7055 312.594 66.8125H305.456C305.255 65.4512 304.722 64.3563 303.858 63.5277C303.006 62.6873 301.887 62.267 300.502 62.267C299.33 62.267 298.306 62.5866 297.43 63.2259C296.566 63.8532 295.891 64.7706 295.406 65.978C294.921 67.1854 294.678 68.6473 294.678 70.3636C294.678 72.1037 294.915 73.5833 295.388 74.8026C295.874 76.0218 296.554 76.951 297.43 77.5902C298.306 78.2294 299.33 78.549 300.502 78.549C301.366 78.549 302.141 78.3714 302.828 78.0163C303.526 77.6612 304.1 77.1463 304.55 76.4716C305.012 75.785 305.314 74.9624 305.456 74.0036H312.594C312.475 76.0869 311.907 77.9216 310.889 79.5078C309.883 81.0821 308.492 82.3132 306.716 83.201C304.941 84.0888 302.84 84.5327 300.413 84.5327ZM324.29 76.152L324.308 67.0788H325.409L334.145 56.7273H342.827L331.091 70.4347H329.297L324.29 76.152ZM317.436 84V47.6364H325V84H317.436ZM334.482 84L326.456 72.1214L331.499 66.777L343.342 84H334.482ZM357.844 84.5327C355.039 84.5327 352.624 83.9645 350.6 82.8281C348.587 81.6799 347.037 80.0582 345.948 77.9631C344.859 75.8561 344.314 73.3643 344.314 70.4879C344.314 67.6825 344.859 65.2204 345.948 63.1016C347.037 60.9827 348.57 59.3314 350.546 58.1477C352.535 56.964 354.867 56.3722 357.542 56.3722C359.341 56.3722 361.016 56.6622 362.567 57.2422C364.129 57.8104 365.491 58.6686 366.651 59.8168C367.823 60.965 368.734 62.4091 369.385 64.1491C370.036 65.8774 370.362 67.9015 370.362 70.2216V72.299H347.333V67.6115H363.242C363.242 66.5225 363.005 65.5578 362.531 64.7173C362.058 63.8769 361.401 63.2199 360.561 62.7464C359.732 62.2611 358.767 62.0185 357.666 62.0185C356.518 62.0185 355.5 62.2848 354.612 62.8175C353.736 63.3383 353.05 64.0426 352.553 64.9304C352.056 65.8063 351.801 66.7829 351.789 67.8601V72.3168C351.789 73.6662 352.038 74.8321 352.535 75.8146C353.044 76.7971 353.76 77.5547 354.683 78.0874C355.607 78.62 356.702 78.8864 357.968 78.8864C358.809 78.8864 359.578 78.768 360.276 78.5312C360.975 78.2945 361.573 77.9394 362.07 77.4659C362.567 76.9924 362.946 76.4124 363.206 75.7259L370.202 76.1875C369.847 77.8684 369.119 79.3362 368.018 80.5909C366.929 81.8338 365.52 82.8045 363.792 83.5028C362.076 84.1894 360.093 84.5327 357.844 84.5327ZM375.298 84V56.7273H382.631V61.4858H382.915C383.412 59.7931 384.247 58.5147 385.419 57.6506C386.59 56.7746 387.94 56.3366 389.467 56.3366C389.846 56.3366 390.254 56.3603 390.692 56.4077C391.13 56.455 391.515 56.5201 391.846 56.603V63.3146C391.491 63.2081 391 63.1134 390.372 63.0305C389.745 62.9477 389.171 62.9062 388.65 62.9062C387.537 62.9062 386.543 63.1489 385.667 63.6342C384.803 64.1077 384.116 64.7706 383.607 65.6229C383.11 66.4751 382.862 67.4576 382.862 68.5703V84H375.298Z" fill="#F6F1E9"/>
<defs>
<clipPath id="clip0_89_218">
<rect width="116" height="116" fill="white" transform="translate(20.1432) rotate(10)"/>
</clipPath>
</defs>
</svg>
