<svg width="55" height="66" viewBox="0 0 55 66" fill="none" xmlns="http://www.w3.org/2000/svg">
<path d="M30.0427 3.9697C25.0076 2.60043 21.9823 2.14804 20.7647 2.63161C20.0786 2.90702 19.8821 3.26799 18.6808 6.56858C17.4497 9.95102 17.2532 10.312 15.9985 11.5234C13.9563 13.4677 13.3277 15.4631 13.7542 18.5839L14.0543 20.979L12.0478 28.2804C10.9442 32.2962 9.0976 39.0689 7.94334 43.3134C6.76034 47.5474 5.81249 51.4036 5.83602 51.8755C5.85226 52.9935 7.66934 54.7979 10.2024 56.245C12.7066 57.6816 22.0479 61.0816 24.861 61.5803C27.6454 62.0686 30.3409 61.9067 30.9836 61.2139C31.2564 60.9116 34.4492 54.1964 38.0501 46.2705L44.6483 31.8981L46.3879 30.338C48.6622 28.2929 49.4245 26.3771 49.1099 23.575C48.9185 21.7754 48.9603 21.4817 50.2489 18.1202C51.5574 14.7042 51.5981 14.5028 51.1644 13.7271C50.1552 11.9388 46.9036 10.2301 38.2344 6.95121C34.4602 5.51574 30.7812 4.17668 30.0427 3.9697ZM43.5356 11.1666C45.0281 11.8952 46.7119 12.7243 47.2282 13.0049C48.0884 13.5034 48.0973 13.5684 47.453 13.5501C44.6921 13.5337 28.5467 7.81175 24.6095 5.48287L22.8703 4.44827L24.0994 4.6485C27.7779 5.18419 38.4544 8.76121 43.5356 11.1666ZM24.1721 7.57875C28.4454 9.96815 44.8903 15.5829 48.2933 15.8021C48.7741 15.8226 48.7423 16.0891 47.809 18.6532C46.9055 21.1354 46.8031 21.6851 47.0164 23.2455C47.3143 25.8252 46.6909 27.3591 44.5238 29.2888C43.2603 30.4353 42.5867 31.3022 41.9554 32.6788C41.4632 33.6735 38.8787 39.3435 36.176 45.2486C33.4734 51.1537 31.1073 56.2236 30.9019 56.5196C29.6379 58.5617 13.7835 53.4708 9.49718 49.6865L8.61138 48.9007L12.3741 35.1644L16.1655 21.4385L15.8942 19.0538C15.5294 15.5848 15.73 14.8546 17.6374 12.9231C19.0776 11.4703 19.3227 11.0652 20.2361 8.55566C21.1495 6.04611 21.2963 5.82154 21.7065 6.12531C21.9354 6.30129 23.0632 6.95889 24.1721 7.57875ZM18.5047 56.2394C24.4256 58.3945 25.5476 58.7102 27.5559 58.916C29.5741 59.0945 29.814 59.1509 29.6175 59.5119C29.049 60.4479 23.5378 59.4923 18.048 57.4942C12.5581 55.4961 7.72205 52.6856 7.8882 51.6031C7.96971 51.2002 8.18972 51.3112 9.85054 52.4717C11.5213 53.605 12.5837 54.0844 18.5047 56.2394Z" fill="#FEFDFA"/>
</svg>
