<?xml version="1.0" encoding="UTF-8" standalone="no" ?>
<svg xmlns="http://www.w3.org/2000/svg" version="1.1" width="1080"
     height="1080" viewBox="0 0 1080 1080" xml:space="preserve">
<desc>Created with Fabric.js 5.2.4</desc>
    <defs>
</defs>
    <rect x="0" y="0" width="100%" height="100%" fill="transparent">l</rect>
    <g transform="matrix(1 0 0 1 540 540)" id="7daafdbc-8243-4e23-9b71-82afc502a702">
<rect style="stroke: none; stroke-width: 1; stroke-dasharray: none; stroke-linecap: butt; stroke-dashoffset: 0; stroke-linejoin: miter; stroke-miterlimit: 4; fill: rgb(255,255,255); fill-rule: nonzero; opacity: 1; visibility: hidden;"
      vector-effect="non-scaling-stroke" x="-540" y="-540" rx="0" ry="0" width="1080" height="1080"/>
</g>
    <g transform="matrix(1 0 0 1 540 540)" id="f51eb69c-6618-4740-be8e-23da849673bc">
</g>
    <g transform="matrix(0.98 -0.17 0.17 0.98 540 540)">
<path style="stroke: rgb(0,0,0); stroke-width: 0; stroke-dasharray: none; stroke-linecap: butt; stroke-dashoffset: 0; stroke-linejoin: miter; stroke-miterlimit: 4; fill: rgb(255,217,61); fill-rule: nonzero; opacity: 1;"
      vector-effect="non-scaling-stroke" transform=" translate(-68.06, -66.03)"
      d="M 61.5781 8.83739 C 51.7168 7.98199 45.9077 8.19447 43.7777 9.58575 C 42.5784 10.3755 42.3231 11.155 41.1045 18.0664 C 39.8556 25.1491 39.6004 25.9286 37.6285 28.7613 C 34.4104 33.3177 33.8566 37.4604 35.6314 43.4273 L 36.9424 48.0167 L 35.4662 63.069 C 34.6543 71.3478 33.3123 85.3048 32.4769 94.0506 C 31.5844 102.786 31.0143 110.695 31.2059 111.613 C 31.5859 113.8 35.5543 116.679 40.7522 118.596 C 45.8931 120.504 64.4567 123.777 69.8829 123.733 C 75.2519 123.678 80.2512 122.381 81.2387 120.788 C 81.6553 120.096 85.5373 105.762 89.8053 88.9054 L 97.6732 58.3129 L 100.445 54.62 C 104.066 49.7813 104.895 45.746 103.429 40.3637 C 102.508 36.9032 102.495 36.3119 103.858 29.2493 C 105.241 22.0725 105.255 21.6626 104.199 20.2986 C 101.75 17.1575 95.1237 14.988 77.857 11.7078 C 70.3374 10.2641 63.0262 8.97493 61.5781 8.83739 Z M 89.1066 18.0496 C 92.1306 18.9362 95.5444 19.9504 96.5994 20.3131 C 98.3668 20.9781 98.4038 21.1024 97.1909 21.3008 C 92.0135 22.2725 59.9766 16.918 51.8722 13.7811 L 48.2904 12.3839 L 50.6557 12.3298 C 57.7147 12.0432 78.8352 15.1784 89.1066 18.0496 Z M 51.7082 18.0515 C 60.461 21.185 93.0254 26.2202 99.4694 25.413 C 100.377 25.2784 100.4 25.8127 99.4535 31.1818 C 98.5369 36.3796 98.5169 37.4951 99.4044 40.4785 C 100.769 45.4308 100.081 48.6664 96.6242 53.2396 C 94.6154 55.948 93.6245 57.8934 92.8723 60.8233 C 92.2611 62.9536 89.1919 75.0159 85.9749 87.5821 C 82.7579 100.148 79.9102 110.954 79.618 111.609 C 77.8883 116.075 46.5941 111.852 37.3806 105.987 L 35.4754 104.768 L 38.2299 76.4543 L 41.0415 48.1505 L 39.7876 43.5712 C 38.0194 36.8988 38.167 35.3935 41.1365 30.9111 C 43.3804 27.5375 43.7129 26.6538 44.6395 21.3989 C 45.5661 16.1439 45.771 15.65 46.6345 16.0967 C 47.1184 16.3587 49.4368 17.2387 51.7082 18.0515 Z M 56.3046 115.567 C 68.0711 117.642 70.2718 117.853 74.0986 117.527 C 77.9355 117.143 78.4025 117.167 78.1473 117.946 C 77.3748 119.989 66.751 120.118 55.8413 118.195 C 44.9316 116.271 34.9926 112.516 34.9654 110.332 C 34.9922 109.512 35.4391 109.65 38.9134 111.323 C 42.3978 112.938 44.5381 113.492 56.3046 115.567 Z"
      stroke-linecap="round"/>
</g>
</svg>