<svg width="135" height="135" viewBox="0 0 135 135" fill="none" xmlns="http://www.w3.org/2000/svg">
<g clip-path="url(#clip0_45_28)" filter="url(#filter0_d_45_28)">
<path d="M61.5781 8.83739C51.7168 7.98199 45.9077 8.19447 43.7777 9.58575C42.5784 10.3755 42.3231 11.155 41.1045 18.0664C39.8556 25.1491 39.6004 25.9286 37.6285 28.7613C34.4104 33.3177 33.8566 37.4604 35.6314 43.4273L36.9424 48.0167L35.4662 63.069C34.6543 71.3478 33.3123 85.3048 32.4769 94.0506C31.5844 102.786 31.0143 110.695 31.2059 111.613C31.5859 113.8 35.5543 116.679 40.7522 118.596C45.8931 120.504 64.4567 123.777 69.8829 123.733C75.2519 123.678 80.2512 122.381 81.2387 120.788C81.6553 120.096 85.5373 105.762 89.8053 88.9054L97.6732 58.3129L100.445 54.62C104.066 49.7813 104.895 45.746 103.429 40.3637C102.508 36.9032 102.495 36.3119 103.858 29.2493C105.241 22.0725 105.255 21.6626 104.199 20.2986C101.75 17.1575 95.1237 14.988 77.857 11.7078C70.3374 10.2641 63.0262 8.97493 61.5781 8.83739ZM89.1066 18.0496C92.1306 18.9362 95.5444 19.9504 96.5994 20.3131C98.3668 20.9781 98.4038 21.1024 97.1909 21.3008C92.0135 22.2725 59.9766 16.918 51.8722 13.7811L48.2904 12.3839L50.6557 12.3298C57.7147 12.0432 78.8352 15.1784 89.1066 18.0496ZM51.7082 18.0515C60.461 21.185 93.0254 26.2202 99.4694 25.413C100.377 25.2784 100.4 25.8127 99.4535 31.1818C98.5369 36.3796 98.5169 37.4951 99.4044 40.4785C100.769 45.4308 100.081 48.6664 96.6242 53.2396C94.6154 55.948 93.6245 57.8934 92.8723 60.8233C92.2611 62.9536 89.1919 75.0159 85.9749 87.5821C82.7579 100.148 79.9102 110.954 79.618 111.609C77.8883 116.075 46.5941 111.852 37.3806 105.987L35.4754 104.768L38.2299 76.4543L41.0415 48.1505L39.7876 43.5712C38.0194 36.8988 38.167 35.3935 41.1365 30.9111C43.3804 27.5375 43.7129 26.6538 44.6395 21.3989C45.5661 16.1439 45.771 15.65 46.6345 16.0967C47.1184 16.3587 49.4368 17.2387 51.7082 18.0515ZM56.3046 115.567C68.0711 117.642 70.2718 117.853 74.0986 117.527C77.9355 117.143 78.4025 117.167 78.1473 117.946C77.3748 119.989 66.751 120.118 55.8413 118.195C44.9316 116.271 34.9926 112.516 34.9654 110.332C34.9922 109.512 35.4391 109.65 38.9134 111.323C42.3978 112.938 44.5381 113.492 56.3046 115.567Z" fill="#FFD93D"/>
</g>
<defs>
<filter id="filter0_d_45_28" x="-4" y="0" width="142.381" height="142.381" filterUnits="userSpaceOnUse" color-interpolation-filters="sRGB">
<feFlood flood-opacity="0" result="BackgroundImageFix"/>
<feColorMatrix in="SourceAlpha" type="matrix" values="0 0 0 0 0 0 0 0 0 0 0 0 0 0 0 0 0 0 127 0" result="hardAlpha"/>
<feOffset dy="4"/>
<feGaussianBlur stdDeviation="2"/>
<feComposite in2="hardAlpha" operator="out"/>
<feColorMatrix type="matrix" values="0 0 0 0 0 0 0 0 0 0 0 0 0 0 0 0 0 0 0.25 0"/>
<feBlend mode="normal" in2="BackgroundImageFix" result="effect1_dropShadow_45_28"/>
<feBlend mode="normal" in="SourceGraphic" in2="effect1_dropShadow_45_28" result="shape"/>
</filter>
<clipPath id="clip0_45_28">
<rect width="116" height="116" fill="white" transform="translate(20.1432) rotate(10)"/>
</clipPath>
</defs>
</svg>
